ffmpeg started on 2025-07-06 at 17:48:31
Report written to "D:\Convert\FFMetrics\reports\ssim_report-6.txt"
Log level: 32
Command line:
ffmpeg -hide_banner -nostdin -i "G:\\\xc0\xed\xe8\xec\xe5\\\xce\xed\xe3\xee\xe8\xed\xe3\xe8\\!_37_\xc7\xe8\xec\xe0_2025\\JamClub\\\xc3\xee\xeb\xf3\xe1\xe0\xff \xf8\xea\xe0\xf2\xf3\xeb\xea\xe0\\JamClub_Ao_no_Hako_10_1080p_HEVC.mkv" -i "G:\\\xc0\xed\xe8\xec\xe5\\\xce\xed\xe3\xee\xe8\xed\xe3\xe8\\!_37_\xc7\xe8\xec\xe0_2025\\JamClub\\\xc3\xee\xeb\xf3\xe1\xe0\xff \xf8\xea\xe0\xf2\xf3\xeb\xea\xe0\\JamClub_Ao_no_Hako_10_1080p.mp4" -lavfi "[0:v]settb=AVTB,setpts=PTS-STARTPTS,format=pix_fmts=yuv420p10,fps=24000/1001,scale=1920:1080:flags=bicubic[main];[1:v]settb=AVTB,setpts=PTS-STARTPTS,format=pix_fmts=yuv420p,fps=24000/1001,scale=1920:1080:flags=bicubic[ref];[main][ref]ssim=eof_action=endall:stats_file='D\\:/Convert/FFMetrics/logs/ssim_logfile-6.txt'" -f null -
Input #0, matroska,webm, from 'G:\Аниме\Онгоинги\!_37_Зима_2025\JamClub\Голубая шкатулка\JamClub_Ao_no_Hako_10_1080p_HEVC.mkv':
  Metadata:
    COMPATIBLE_BRANDS: isomiso2avc1mp41
    MAJOR_BRAND     : isom
    MINOR_VERSION   : 512
    ENCODER         : Lavf61.7.100
  Duration: 00:23:59.25, start: -0.001000, bitrate: 1096 kb/s
  Stream #0:0: Video: hevc (Main 10), yuv420p10le(tv, bt709, progressive), 1920x1080 [SAR 1:1 DAR 16:9], 23.98 fps, 23.98 tbr, 1k tbn (default)
      Metadata:
        HANDLER_NAME    : VideoHandler
        VENDOR_ID       : [0][0][0][0]
        ENCODER         : Lavc61.19.100 libx265
        BPS             : 899628
        DURATION        : 00:23:59.187708333
        NUMBER_OF_FRAMES: 34507
        NUMBER_OF_BYTES : 161841634
        _STATISTICS_WRITING_APP: mkvpropedit v66.0.0 ('Josie') 64-bit
        _STATISTICS_WRITING_DATE_UTC: 2025-07-05 09:20:44
        _STATISTICS_TAGS: BPS DURATION NUMBER_OF_FRAMES NUMBER_OF_BYTES
  Stream #0:1(eng): Audio: aac (LC), 48000 Hz, stereo, fltp (default)
      Metadata:
        HANDLER_NAME    : SoundHandler
        VENDOR_ID       : [0][0][0][0]
        ENCODER         : Lavc61.19.100 aac
        BPS             : 193120
        DURATION        : 00:23:59.213000000
        NUMBER_OF_FRAMES: 67464
        NUMBER_OF_BYTES : 34742769
        _STATISTICS_WRITING_APP: mkvpropedit v66.0.0 ('Josie') 64-bit
        _STATISTICS_WRITING_DATE_UTC: 2025-07-05 09:20:44
        _STATISTICS_TAGS: BPS DURATION NUMBER_OF_FRAMES NUMBER_OF_BYTES
Input #1, mov,mp4,m4a,3gp,3g2,mj2, from 'G:\Аниме\Онгоинги\!_37_Зима_2025\JamClub\Голубая шкатулка\JamClub_Ao_no_Hako_10_1080p.mp4':
  Metadata:
    major_brand     : isom
    minor_version   : 512
    compatible_brands: isomiso2avc1mp41
    encoder         : Lavf60.16.100
  Duration: 00:23:59.23, start: 0.000000, bitrate: 4544 kb/s
  Stream #1:0[0x1](und): Video: h264 (High) (avc1 / 0x31637661), yuv420p(progressive), 1920x1080 [SAR 1:1 DAR 16:9], 4346 kb/s, 23.98 fps, 23.98 tbr, 90k tbn (default)
      Metadata:
        handler_name    : VideoHandler
        vendor_id       : [0][0][0][0]
  Stream #1:1[0x2](eng): Audio: aac (LC) (mp4a / 0x6134706D), 48000 Hz, stereo, fltp, 191 kb/s (default)
      Metadata:
        handler_name    : SoundHandler
        vendor_id       : [0][0][0][0]
Stream mapping:
  Stream #0:0 (hevc) -> settb:default
  Stream #1:0 (h264) -> settb:default
  ssim:default -> Stream #0:0 (wrapped_avframe)
  Stream #0:1 -> #0:1 (aac (native) -> pcm_s16le (native))
Output #0, null, to 'pipe:':
  Metadata:
    COMPATIBLE_BRANDS: isomiso2avc1mp41
    MAJOR_BRAND     : isom
    MINOR_VERSION   : 512
    encoder         : Lavf61.7.100
  Stream #0:0: Video: wrapped_avframe, yuv420p10le(tv, bt709, progressive), 1920x1080 [SAR 1:1 DAR 16:9], q=2-31, 200 kb/s, 23.98 fps, 23.98 tbn
      Metadata:
        encoder         : Lavc61.19.100 wrapped_avframe
  Stream #0:1(eng): Audio: pcm_s16le, 48000 Hz, stereo, s16, 1536 kb/s (default)
      Metadata:
        HANDLER_NAME    : SoundHandler
        VENDOR_ID       : [0][0][0][0]
        _STATISTICS_TAGS: BPS DURATION NUMBER_OF_FRAMES NUMBER_OF_BYTES
        BPS             : 193120
        DURATION        : 00:23:59.213000000
        NUMBER_OF_FRAMES: 67464
        NUMBER_OF_BYTES : 34742769
        _STATISTICS_WRITING_APP: mkvpropedit v66.0.0 ('Josie') 64-bit
        _STATISTICS_WRITING_DATE_UTC: 2025-07-05 09:20:44
        encoder         : Lavc61.19.100 pcm_s16le
frame=  100 fps=0.0 q=-0.0 size=N/A time=00:00:04.17 bitrate=N/A speed=8.12x    frame=  253 fps=247 q=-0.0 size=N/A time=00:00:10.55 bitrate=N/A speed=10.3x    frame=  439 fps=283 q=-0.0 size=N/A time=00:00:18.30 bitrate=N/A speed=11.8x    frame=  678 fps=329 q=-0.0 size=N/A time=00:00:28.27 bitrate=N/A speed=13.7x    frame=  893 fps=347 q=-0.0 size=N/A time=00:00:37.24 bitrate=N/A speed=14.5x    frame= 1100 fps=356 q=-0.0 size=N/A time=00:00:45.87 bitrate=N/A speed=14.9x    frame= 1307 fps=362 q=-0.0 size=N/A time=00:00:54.51 bitrate=N/A speed=15.1x    frame= 1519 fps=368 q=-0.0 size=N/A time=00:01:03.35 bitrate=N/A speed=15.4x    frame= 1724 fps=372 q=-0.0 size=N/A time=00:01:11.90 bitrate=N/A speed=15.5x    frame= 1911 fps=371 q=-0.0 size=N/A time=00:01:19.70 bitrate=N/A speed=15.5x    frame= 2116 fps=373 q=-0.0 size=N/A time=00:01:28.25 bitrate=N/A speed=15.6x    frame= 2323 fps=376 q=-0.0 size=N/A time=00:01:36.88 bitrate=N/A speed=15.7x    frame= 2527 fps=377 q=-0.0 size=N/A time=00:01:45.39 bitrate=N/A speed=15.7x    frame= 2774 fps=384 q=-0.0 size=N/A time=00:01:55.69 bitrate=N/A speed=  16x    frame= 3017 fps=390 q=-0.0 size=N/A time=00:02:05.83 bitrate=N/A speed=16.3x    frame= 3251 fps=394 q=-0.0 size=N/A time=00:02:15.59 bitrate=N/A speed=16.4x    frame= 3503 fps=400 q=-0.0 size=N/A time=00:02:26.10 bitrate=N/A speed=16.7x    frame= 3751 fps=404 q=-0.0 size=N/A time=00:02:36.44 bitrate=N/A speed=16.8x    frame= 4012 fps=409 q=-0.0 size=N/A time=00:02:47.33 bitrate=N/A speed=17.1x    frame= 4280 fps=415 q=-0.0 size=N/A time=00:02:58.51 bitrate=N/A speed=17.3x    frame= 4526 fps=418 q=-0.0 size=N/A time=00:03:08.77 bitrate=N/A speed=17.4x    frame= 4772 fps=420 q=-0.0 size=N/A time=00:03:19.03 bitrate=N/A speed=17.5x    frame= 4998 fps=421 q=-0.0 size=N/A time=00:03:28.45 bitrate=N/A speed=17.6x    frame= 5226 fps=422 q=-0.0 size=N/A time=00:03:37.96 bitrate=N/A speed=17.6x    frame= 5424 fps=421 q=-0.0 size=N/A time=00:03:46.22 bitrate=N/A speed=17.6x    frame= 5649 fps=421 q=-0.0 size=N/A time=00:03:55.61 bitrate=N/A speed=17.6x    frame= 5894 fps=423 q=-0.0 size=N/A time=00:04:05.82 bitrate=N/A speed=17.7x    frame= 6139 fps=425 q=-0.0 size=N/A time=00:04:16.04 bitrate=N/A speed=17.7x    frame= 6380 fps=426 q=-0.0 size=N/A time=00:04:26.09 bitrate=N/A speed=17.8x    frame= 6616 fps=428 q=-0.0 size=N/A time=00:04:35.94 bitrate=N/A speed=17.8x    frame= 6864 fps=429 q=-0.0 size=N/A time=00:04:46.28 bitrate=N/A speed=17.9x    frame= 7125 fps=432 q=-0.0 size=N/A time=00:04:57.17 bitrate=N/A speed=  18x    frame= 7380 fps=434 q=-0.0 size=N/A time=00:05:07.80 bitrate=N/A speed=18.1x    frame= 7616 fps=434 q=-0.0 size=N/A time=00:05:17.65 bitrate=N/A speed=18.1x    frame= 7872 fps=436 q=-0.0 size=N/A time=00:05:28.32 bitrate=N/A speed=18.2x    frame= 8120 fps=438 q=-0.0 size=N/A time=00:05:38.67 bitrate=N/A speed=18.3x    frame= 8391 fps=440 q=-0.0 size=N/A time=00:05:49.97 bitrate=N/A speed=18.3x    frame= 8641 fps=441 q=-0.0 size=N/A time=00:06:00.40 bitrate=N/A speed=18.4x    frame= 8864 fps=441 q=-0.0 size=N/A time=00:06:09.70 bitrate=N/A speed=18.4x    frame= 9116 fps=442 q=-0.0 size=N/A time=00:06:20.21 bitrate=N/A speed=18.4x    frame= 9373 fps=443 q=-0.0 size=N/A time=00:06:30.93 bitrate=N/A speed=18.5x    frame= 9615 fps=444 q=-0.0 size=N/A time=00:06:41.02 bitrate=N/A speed=18.5x    frame= 9837 fps=444 q=-0.0 size=N/A time=00:06:50.28 bitrate=N/A speed=18.5x    frame=10089 fps=445 q=-0.0 size=N/A time=00:07:00.79 bitrate=N/A speed=18.5x    frame=10324 fps=445 q=-0.0 size=N/A time=00:07:10.59 bitrate=N/A speed=18.6x    frame=10553 fps=445 q=-0.0 size=N/A time=00:07:20.14 bitrate=N/A speed=18.6x    frame=10788 fps=445 q=-0.0 size=N/A time=00:07:29.94 bitrate=N/A speed=18.6x    frame=11033 fps=446 q=-0.0 size=N/A time=00:07:40.16 bitrate=N/A speed=18.6x    frame=11250 fps=445 q=-0.0 size=N/A time=00:07:49.21 bitrate=N/A speed=18.6x    frame=11459 fps=445 q=-0.0 size=N/A time=00:07:57.93 bitrate=N/A speed=18.5x    frame=11682 fps=444 q=-0.0 size=N/A time=00:08:07.23 bitrate=N/A speed=18.5x    frame=11938 fps=445 q=-0.0 size=N/A time=00:08:17.91 bitrate=N/A speed=18.6x    frame=12198 fps=446 q=-0.0 size=N/A time=00:08:28.75 bitrate=N/A speed=18.6x    frame=12450 fps=447 q=-0.0 size=N/A time=00:08:39.26 bitrate=N/A speed=18.7x    frame=12712 fps=448 q=-0.0 size=N/A time=00:08:50.19 bitrate=N/A speed=18.7x    frame=12964 fps=449 q=-0.0 size=N/A time=00:09:00.70 bitrate=N/A speed=18.7x    frame=13208 fps=449 q=-0.0 size=N/A time=00:09:10.88 bitrate=N/A speed=18.7x    frame=13462 fps=450 q=-0.0 size=N/A time=00:09:21.47 bitrate=N/A speed=18.8x    frame=13729 fps=451 q=-0.0 size=N/A time=00:09:32.61 bitrate=N/A speed=18.8x    frame=13978 fps=452 q=-0.0 size=N/A time=00:09:42.99 bitrate=N/A speed=18.8x    frame=14212 fps=452 q=-0.0 size=N/A time=00:09:52.75 bitrate=N/A speed=18.8x    frame=14429 fps=451 q=-0.0 size=N/A time=00:10:01.80 bitrate=N/A speed=18.8x    frame=14633 fps=450 q=-0.0 size=N/A time=00:10:10.31 bitrate=N/A speed=18.8x    frame=14857 fps=450 q=-0.0 size=N/A time=00:10:19.66 bitrate=N/A speed=18.8x    frame=15079 fps=450 q=-0.0 size=N/A time=00:10:28.91 bitrate=N/A speed=18.8x    frame=15321 fps=450 q=-0.0 size=N/A time=00:10:39.01 bitrate=N/A speed=18.8x    frame=15571 fps=451 q=-0.0 size=N/A time=00:10:49.44 bitrate=N/A speed=18.8x    frame=15785 fps=450 q=-0.0 size=N/A time=00:10:58.36 bitrate=N/A speed=18.8x    frame=16012 fps=450 q=-0.0 size=N/A time=00:11:07.83 bitrate=N/A speed=18.8x    frame=16232 fps=450 q=-0.0 size=N/A time=00:11:17.00 bitrate=N/A speed=18.8x    frame=16464 fps=450 q=-0.0 size=N/A time=00:11:26.68 bitrate=N/A speed=18.8x    frame=16696 fps=450 q=-0.0 size=N/A time=00:11:36.36 bitrate=N/A speed=18.8x    frame=16954 fps=450 q=-0.0 size=N/A time=00:11:47.12 bitrate=N/A speed=18.8x    frame=17176 fps=450 q=-0.0 size=N/A time=00:11:56.38 bitrate=N/A speed=18.8x    frame=17439 fps=451 q=-0.0 size=N/A time=00:12:07.35 bitrate=N/A speed=18.8x    frame=17688 fps=451 q=-0.0 size=N/A time=00:12:17.73 bitrate=N/A speed=18.8x    frame=17926 fps=451 q=-0.0 size=N/A time=00:12:27.66 bitrate=N/A speed=18.8x    frame=18181 fps=452 q=-0.0 size=N/A time=00:12:38.29 bitrate=N/A speed=18.8x    frame=18432 fps=452 q=-0.0 size=N/A time=00:12:48.76 bitrate=N/A speed=18.9x    frame=18689 fps=453 q=-0.0 size=N/A time=00:12:59.48 bitrate=N/A speed=18.9x    frame=18944 fps=453 q=-0.0 size=N/A time=00:13:10.12 bitrate=N/A speed=18.9x    frame=19203 fps=454 q=-0.0 size=N/A time=00:13:20.92 bitrate=N/A speed=18.9x    frame=19458 fps=454 q=-0.0 size=N/A time=00:13:31.56 bitrate=N/A speed=  19x    frame=19708 fps=455 q=-0.0 size=N/A time=00:13:41.98 bitrate=N/A speed=  19x    frame=19955 fps=455 q=-0.0 size=N/A time=00:13:52.28 bitrate=N/A speed=  19x    frame=20226 fps=456 q=-0.0 size=N/A time=00:14:03.59 bitrate=N/A speed=  19x    frame=20458 fps=456 q=-0.0 size=N/A time=00:14:13.26 bitrate=N/A speed=  19x    frame=20708 fps=456 q=-0.0 size=N/A time=00:14:23.69 bitrate=N/A speed=  19x    frame=20969 fps=457 q=-0.0 size=N/A time=00:14:34.58 bitrate=N/A speed=  19x    frame=21233 fps=457 q=-0.0 size=N/A time=00:14:45.59 bitrate=N/A speed=19.1x    frame=21493 fps=458 q=-0.0 size=N/A time=00:14:56.43 bitrate=N/A speed=19.1x    frame=21751 fps=458 q=-0.0 size=N/A time=00:15:07.19 bitrate=N/A speed=19.1x    frame=22014 fps=459 q=-0.0 size=N/A time=00:15:18.16 bitrate=N/A speed=19.1x    frame=22265 fps=459 q=-0.0 size=N/A time=00:15:28.63 bitrate=N/A speed=19.1x    frame=22510 fps=459 q=-0.0 size=N/A time=00:15:38.85 bitrate=N/A speed=19.2x    frame=22763 fps=460 q=-0.0 size=N/A time=00:15:49.40 bitrate=N/A speed=19.2x    frame=23035 fps=460 q=-0.0 size=N/A time=00:16:00.75 bitrate=N/A speed=19.2x    frame=23284 fps=460 q=-0.0 size=N/A time=00:16:11.13 bitrate=N/A speed=19.2x    frame=23524 fps=461 q=-0.0 size=N/A time=00:16:21.14 bitrate=N/A speed=19.2x    frame=23763 fps=461 q=-0.0 size=N/A time=00:16:31.11 bitrate=N/A speed=19.2x    frame=24018 fps=461 q=-0.0 size=N/A time=00:16:41.75 bitrate=N/A speed=19.2x    frame=24281 fps=461 q=-0.0 size=N/A time=00:16:52.72 bitrate=N/A speed=19.2x    frame=24522 fps=461 q=-0.0 size=N/A time=00:17:02.77 bitrate=N/A speed=19.2x    frame=24777 fps=462 q=-0.0 size=N/A time=00:17:13.40 bitrate=N/A speed=19.3x    frame=25015 fps=462 q=-0.0 size=N/A time=00:17:23.33 bitrate=N/A speed=19.3x    frame=25257 fps=462 q=-0.0 size=N/A time=00:17:33.42 bitrate=N/A speed=19.3x    frame=25515 fps=462 q=-0.0 size=N/A time=00:17:44.18 bitrate=N/A speed=19.3x    frame=25770 fps=462 q=-0.0 size=N/A time=00:17:54.82 bitrate=N/A speed=19.3x    frame=26017 fps=463 q=-0.0 size=N/A time=00:18:05.12 bitrate=N/A speed=19.3x    frame=26262 fps=463 q=-0.0 size=N/A time=00:18:15.34 bitrate=N/A speed=19.3x    frame=26526 fps=463 q=-0.0 size=N/A time=00:18:26.35 bitrate=N/A speed=19.3x    frame=26787 fps=464 q=-0.0 size=N/A time=00:18:37.24 bitrate=N/A speed=19.3x    frame=27031 fps=464 q=-0.0 size=N/A time=00:18:47.41 bitrate=N/A speed=19.3x    frame=27288 fps=464 q=-0.0 size=N/A time=00:18:58.13 bitrate=N/A speed=19.4x    frame=27545 fps=464 q=-0.0 size=N/A time=00:19:08.85 bitrate=N/A speed=19.4x    frame=27802 fps=465 q=-0.0 size=N/A time=00:19:19.57 bitrate=N/A speed=19.4x    frame=28074 fps=465 q=-0.0 size=N/A time=00:19:30.91 bitrate=N/A speed=19.4x    frame=28339 fps=466 q=-0.0 size=N/A time=00:19:41.97 bitrate=N/A speed=19.4x    frame=28619 fps=466 q=-0.0 size=N/A time=00:19:53.65 bitrate=N/A speed=19.4x    frame=28854 fps=466 q=-0.0 size=N/A time=00:20:03.45 bitrate=N/A speed=19.4x    frame=29089 fps=466 q=-0.0 size=N/A time=00:20:13.25 bitrate=N/A speed=19.4x    frame=29357 fps=466 q=-0.0 size=N/A time=00:20:24.43 bitrate=N/A speed=19.5x    frame=29615 fps=467 q=-0.0 size=N/A time=00:20:35.19 bitrate=N/A speed=19.5x    frame=29859 fps=467 q=-0.0 size=N/A time=00:20:45.36 bitrate=N/A speed=19.5x    frame=30070 fps=466 q=-0.0 size=N/A time=00:20:54.16 bitrate=N/A speed=19.4x    frame=30271 fps=466 q=-0.0 size=N/A time=00:21:02.55 bitrate=N/A speed=19.4x    frame=30496 fps=465 q=-0.0 size=N/A time=00:21:11.93 bitrate=N/A speed=19.4x    frame=30750 fps=466 q=-0.0 size=N/A time=00:21:22.53 bitrate=N/A speed=19.4x    frame=31004 fps=466 q=-0.0 size=N/A time=00:21:33.12 bitrate=N/A speed=19.4x    frame=31253 fps=466 q=-0.0 size=N/A time=00:21:43.51 bitrate=N/A speed=19.4x    frame=31515 fps=466 q=-0.0 size=N/A time=00:21:54.43 bitrate=N/A speed=19.4x    frame=31758 fps=466 q=-0.0 size=N/A time=00:22:04.57 bitrate=N/A speed=19.5x    frame=31998 fps=466 q=-0.0 size=N/A time=00:22:14.58 bitrate=N/A speed=19.5x    frame=32244 fps=466 q=-0.0 size=N/A time=00:22:24.84 bitrate=N/A speed=19.5x    frame=32494 fps=466 q=-0.0 size=N/A time=00:22:35.27 bitrate=N/A speed=19.5x    frame=32690 fps=466 q=-0.0 size=N/A time=00:22:43.44 bitrate=N/A speed=19.4x    frame=32905 fps=466 q=-0.0 size=N/A time=00:22:52.41 bitrate=N/A speed=19.4x    frame=33108 fps=465 q=-0.0 size=N/A time=00:23:00.87 bitrate=N/A speed=19.4x    frame=33324 fps=465 q=-0.0 size=N/A time=00:23:09.88 bitrate=N/A speed=19.4x    frame=33569 fps=465 q=-0.0 size=N/A time=00:23:20.10 bitrate=N/A speed=19.4x    frame=33766 fps=464 q=-0.0 size=N/A time=00:23:28.32 bitrate=N/A speed=19.4x    frame=33985 fps=464 q=-0.0 size=N/A time=00:23:37.45 bitrate=N/A speed=19.3x    frame=34214 fps=464 q=-0.0 size=N/A time=00:23:47.00 bitrate=N/A speed=19.3x    frame=34434 fps=463 q=-0.0 size=N/A time=00:23:56.18 bitrate=N/A speed=19.3x    [Parsed_ssim_10 @ 000002dad318e6c0] SSIM Y:0.994096 (22.288520) U:0.994005 (22.221808) V:0.993831 (22.097804) All:0.994037 (22.245040)
[out#0/null @ 000002dad1c04ac0] video:14827KiB audio:269856KiB subtitle:0KiB other streams:0KiB global headers:0KiB muxing overhead: unknown
frame=34506 fps=464 q=-0.0 Lsize=N/A time=00:23:59.18 bitrate=N/A speed=19.3x    
